<svg width="117" height="85" viewBox="0 0 117 85" fill="none" xmlns="http://www.w3.org/2000/svg">
<path d="M0 83.8803V63.8355H4.03391C4.97137 65.204 5.85695 66.4947 6.69066 67.7076C7.52437 68.9217 8.35807 70.1371 9.19302 71.3549L12.4537 76.078H12.7909V63.8355H17.1349V83.8803H13.1429C12.3747 82.7563 11.5682 81.5842 10.7258 80.3664C9.88222 79.1485 8.95958 77.8171 7.95666 76.3744L4.65394 71.5957H4.33034V83.8815H0V83.8803Z" fill="white"/>
<path d="M19.6876 83.8803C20.0433 82.8032 20.4163 81.6694 20.8054 80.4787C21.1944 79.2893 21.5625 78.1592 21.9083 77.0908L24.1711 70.2173C24.5737 68.9711 24.9393 67.8484 25.2679 66.8504C25.5952 65.8524 25.9237 64.847 26.2522 63.8355H32.2117C32.5489 64.8853 32.8799 65.9068 33.2023 66.8998C33.5259 67.8928 33.889 68.9995 34.2917 70.2173L36.526 77.1044C36.8916 78.2098 37.2646 79.3486 37.6438 80.5195C38.023 81.6904 38.3861 82.8107 38.7332 83.879H33.9545C33.6543 82.8107 33.3456 81.7163 33.0269 80.5973C32.7082 79.4771 32.4032 78.4161 32.1129 77.4132L29.3573 67.757H29.0202L26.2374 77.3156C25.9373 78.3556 25.6211 79.4449 25.2889 80.5837C24.9566 81.7225 24.6355 82.8205 24.3255 83.8803H19.6863H19.6876ZM24.5218 79.6907L25.0134 76.2324H33.9668L34.3608 79.6907H24.5218Z" fill="white"/>
<path d="M41.2798 83.8803V63.8355H45.8905V83.8803H41.2798ZM52.8195 83.8803C52.2008 82.9897 51.6178 82.1536 51.0694 81.3717C50.521 80.5899 49.9849 79.818 49.46 79.0596L46.8169 75.2789H45.5237V71.6526H46.76L49.1216 68.5598C49.6836 67.8286 50.2418 67.0999 50.794 66.3736C51.3473 65.6474 51.9883 64.8013 52.7195 63.8367H58.0466C57.1746 64.8952 56.3248 65.9364 55.4948 66.9566C54.6661 67.9781 53.8336 69.0094 52.9999 70.0494L49.8231 73.9709L49.7392 71.9329L53.2667 76.8104C53.8101 77.5602 54.3931 78.3655 55.0168 79.2276C55.6393 80.0897 56.247 80.9283 56.8374 81.7435C57.4278 82.5587 57.9478 83.2714 58.3974 83.8803H52.8171H52.8195Z" fill="white"/>
<path d="M69.356 84.2613C67.5478 84.2613 65.9829 83.9821 64.6613 83.4251C63.3398 82.8681 62.2528 82.1035 61.4006 81.1339C60.5484 80.1644 59.9123 79.0565 59.4961 77.8102C59.0786 76.564 58.8711 75.2523 58.8711 73.8739C58.8711 71.9249 59.2577 70.1611 60.0309 68.5814C60.804 67.0029 61.9564 65.7493 63.4892 64.8217C65.0208 63.8941 66.9352 63.4297 69.2313 63.4297C70.974 63.4297 72.497 63.699 73.8 64.2375C75.1018 64.776 76.1875 65.5232 77.0546 66.4792C77.9216 67.4352 78.57 68.5406 79.0011 69.7968C79.4322 71.0529 79.6471 72.4016 79.6471 73.8455C79.6471 75.8414 79.2506 77.6225 78.4589 79.1874C77.6672 80.7523 76.5074 81.9899 74.9795 82.8977C73.4517 83.8068 71.578 84.2613 69.3573 84.2613H69.356ZM69.2869 80.4522C70.2144 80.4522 71.0247 80.2768 71.7188 79.9248C72.4117 79.574 72.9885 79.0886 73.448 78.4698C73.9075 77.851 74.2508 77.1457 74.4806 76.354C74.7103 75.5623 74.8252 74.7261 74.8252 73.8455C74.8252 72.9179 74.7004 72.0533 74.4522 71.2517C74.2039 70.4501 73.8432 69.7498 73.3702 69.1508C72.8971 68.5518 72.3179 68.0824 71.6348 67.7452C70.9506 67.408 70.1675 67.2388 69.2869 67.2388C68.4062 67.2388 67.5738 67.4117 66.8759 67.7588C66.1781 68.1059 65.5939 68.5863 65.1257 69.199C64.6576 69.8128 64.3007 70.5181 64.0574 71.3147C63.814 72.1114 63.6918 72.955 63.6918 73.8443C63.6918 74.7335 63.8091 75.5759 64.0438 76.3676C64.2784 77.1593 64.6267 77.8621 65.0912 78.476C65.5556 79.0898 66.1361 79.5728 66.8339 79.9235C67.5318 80.2755 68.3494 80.4509 69.2869 80.4509V80.4522Z" fill="white"/>
<path d="M82.6646 83.8803V63.8355H90.3396C91.9799 63.8355 93.3645 64.0158 94.4934 64.3765C95.6223 64.7371 96.4794 65.3374 97.0661 66.176C97.6516 67.0147 97.9443 68.1646 97.9443 69.627C97.9443 70.7793 97.717 71.8156 97.2625 72.7333C96.808 73.6522 96.0793 74.3785 95.0763 74.912C94.0734 75.4456 92.7617 75.7186 91.14 75.7272L92.9247 74.0129L95.6519 78.0468C96.0731 78.6656 96.5239 79.3288 97.0019 80.0353C97.4799 80.7431 97.948 81.4323 98.4075 82.1017C98.8669 82.7724 99.2646 83.364 99.6018 83.8803H94.3587C93.8523 83.0935 93.3682 82.3364 92.9038 81.6101C92.4393 80.8839 91.9836 80.1786 91.5328 79.4944L88.272 74.3921L91.0412 76.4868H86.3601V73.1841H89.7196C90.4594 73.1841 91.0856 73.0927 91.5958 72.9099C92.1059 72.7271 92.4974 72.4159 92.7691 71.9749C93.0408 71.534 93.1767 70.935 93.1767 70.1754C93.1767 69.5948 93.0903 69.1304 92.9161 68.7834C92.7432 68.4363 92.5134 68.1646 92.2269 67.9682C91.9404 67.7718 91.6242 67.6359 91.2783 67.5606C90.9313 67.4853 90.5755 67.4482 90.21 67.4482H83.9133L87.2024 64.5667V83.8803H82.6621H82.6646Z" fill="white"/>
<path d="M106.346 83.8803V64.5667L108.089 68.4869H100.288V63.8355H117V68.4869H109.199L110.957 64.5667V83.8803H106.346Z" fill="white"/>
<path d="M82.1876 16.3049C82.9188 16.4014 83.5513 18.3054 83.8562 19.5769C84.161 20.8484 85.5584 26.2252 83.9972 32.178C82.4328 38.1417 79.7129 42.0322 78.5977 42.1222C77.3989 42.2188 76.4409 40.6967 75.9136 39.167C74.5217 35.1301 79.2193 25.7468 80.595 19.8699C81.0777 17.8064 81.3208 16.191 82.1865 16.3049H82.1876Z" fill="#EBFF00"/>
<path d="M34.8149 36.0696C34.0837 35.973 33.4512 34.069 33.1463 32.7975C32.8415 31.526 31.4441 26.1493 33.0053 20.1964C34.5697 14.2327 37.2896 10.3423 38.4048 10.2522C39.6036 10.1557 40.5616 11.6778 41.0889 13.2075C42.4808 17.2444 37.7832 26.6277 36.4075 32.5046C35.9248 34.5681 35.6817 36.1835 34.816 36.0696H34.8149Z" fill="#EBFF00"/>
<path d="M70.934 35.1986C71.8725 26.6073 78.9558 16.3876 76.4941 9.1643C75.5774 6.47484 73.7482 3.70618 66.6921 1.31506C60.8878 -0.651864 55.6445 -0.126773 51.4785 1.03515C47.8029 2.06147 42.5292 4.63376 42.7125 6.37503C42.7581 6.81224 42.9013 7.16266 43.0944 7.35903C43.3526 7.62049 70.934 35.1986 70.934 35.1986Z" fill="#EBFF00"/>
<path d="M46.0656 17.1588C45.1326 25.7501 38.0547 35.9742 40.5206 43.1964C41.4385 45.8848 43.2698 48.6534 50.3281 51.0402C56.1334 53.0028 61.3767 52.4766 65.5428 51.3114C69.2184 50.2829 74.4899 47.7074 74.3055 45.9661C74.2588 45.53 74.1167 45.1785 73.9236 44.9821C73.6654 44.7207 46.0677 17.1588 46.0677 17.1588H46.0656Z" fill="#EBFF00"/>
</svg>
